<svg width="83" height="91" viewBox="0 0 83 91" fill="none" xmlns="http://www.w3.org/2000/svg">
<path fill-rule="evenodd" clip-rule="evenodd" d="M82.6757 47.3976C82.6757 24.3525 64.1681 5.67065 41.3377 5.67065C18.5074 5.67065 -0.000244141 24.3525 -0.000244141 47.3976C-0.000244141 70.4427 18.5074 89.1245 41.3377 89.1245C64.1681 89.1245 82.6757 70.4427 82.6757 47.3976" fill="#E0F5F5"/>
<circle cx="71" cy="12" r="12" fill="#49CBD2"/>
<path fill-rule="evenodd" clip-rule="evenodd" d="M69.6211 13.3886L66.4348 10.2199L65 11.6685L69.6211 16.2857L77.8571 8.30574L76.4224 6.85718L69.6211 13.3886Z" fill="white"/>
<path opacity="0.187756" fill-rule="evenodd" clip-rule="evenodd" d="M75.1007 57.4272V71.4568C73.5774 73.6311 71.8643 75.6391 69.9699 77.479V57.4272H69.9626V57.3796C69.9394 57.2757 67.4454 55.1885 65.5271 53.6034V52.7267L64 48.033C64.9555 47.7863 69.8046 51.9546 70.6963 52.3447C71.0994 52.5203 71.5177 52.6878 71.9354 52.8226V54.655C73.8537 56.2402 75.0688 57.2757 75.092 57.3796V57.4272H75.1007Z" fill="#7FD6CB"/>
<path fill-rule="evenodd" clip-rule="evenodd" d="M53.3521 36.8544L53.046 36.042C53.5818 35.8356 54.117 35.6265 54.6508 35.416L54.9643 36.2263C54.4284 36.4368 53.8912 36.6473 53.3521 36.8544" fill="#00C8B7"/>
<path fill-rule="evenodd" clip-rule="evenodd" d="M69.9657 57.4283L39.9662 75.2857L9.96735 57.4283C9.96735 57.4136 9.96735 57.3935 9.97199 57.3787C9.99656 57.2655 11.6526 55.87 14.1771 53.7996C14.2023 53.7802 14.2216 53.7601 14.2455 53.74C22.5296 46.951 39.9662 33.0481 39.9662 33.0481C39.9662 33.0481 57.4035 46.951 65.6876 53.74C68.2513 55.8405 69.9365 57.2601 69.9611 57.3787C69.9657 57.3935 69.9657 57.4136 69.9657 57.4283" fill="#7A4C08"/>
<path fill-rule="evenodd" clip-rule="evenodd" d="M52.3036 18.2593H19.9362C17.16 18.2593 14.9097 20.5314 14.9097 23.3337V72.733C14.9097 75.5353 17.16 77.8067 19.9362 77.8067H60.494C63.2702 77.8067 65.5205 75.5353 65.5205 72.733V31.6006L52.3036 18.2593Z" fill="white"/>
<path d="M35.7357 48.9424L33.7768 50.0481L31 57.1151L36.8789 53.798L35.7357 48.9424V48.9424Z" fill="#82EBE3"/>
<path d="M44.1807 48.9424L46.1395 50.0481L48.9164 57.1151L43.0375 53.798L44.1807 48.9424V48.9424Z" fill="#82EBE3"/>
<path d="M37.6629 58.3543L38.3454 57.0261C38.4661 58.6565 38.8408 60.2539 39.454 61.7524C40.5563 60.5805 40.8326 58.8115 41.0456 57.1659C41.3586 57.9736 41.6381 58.7944 41.8843 59.6284C42.3846 58.5683 42.5478 57.3628 42.3492 56.1946L42.7736 56.9663C43.0636 55.8469 42.9384 54.6512 42.4242 53.6279C41.5479 53.6974 40.6698 53.7434 39.7898 53.7659C39.3685 53.7774 38.9454 53.7832 38.5205 53.7832C38.2416 53.7832 37.7279 53.6665 37.4733 53.8179C36.984 54.1073 37.1627 55.3545 37.1934 55.8667C37.2188 56.2902 37.271 56.7114 37.3496 57.1273C37.3866 57.3231 37.7324 58.2192 37.6629 58.3543Z" fill="#ED697C"/>
<path d="M38.4473 56.5837L38.8673 55.7539C38.9424 56.7722 39.1738 57.7698 39.5521 58.7057C40.2315 57.9737 40.4022 56.8682 40.5337 55.8408C40.7272 56.346 40.8998 56.859 41.0514 57.38C41.3599 56.7174 41.4605 55.9642 41.3381 55.2342L41.5992 55.7183C41.7796 55.0176 41.7024 54.2685 41.3837 53.6279C40.8432 53.6714 40.3018 53.7004 39.7594 53.7149C39.4983 53.7215 39.2371 53.7247 38.976 53.7247C38.8043 53.7247 38.4875 53.6516 38.3305 53.7465C38.0283 53.9292 38.1378 54.7067 38.157 55.0307C38.1731 55.2962 38.2054 55.5602 38.2538 55.8211C38.2766 55.9396 38.4893 56.4997 38.4473 56.5837Z" fill="url(#paint0_linear)"/>
<path d="M39.944 31C39.944 31 30.6858 36.6021 36.1249 54.0735H43.6719C43.6719 54.0735 49.2749 40.1705 39.944 31Z" fill="#82EBE3"/>
<ellipse cx="39.7863" cy="41.7408" rx="3.12764" ry="3.23709" fill="white"/>
<path fill-rule="evenodd" clip-rule="evenodd" d="M52.3036 26.5264C52.3036 29.3287 54.5545 31.6008 57.3307 31.6008H65.5205L52.3036 18.2595V26.5264Z" fill="#E6E8E8"/>
<path fill-rule="evenodd" clip-rule="evenodd" d="M69.969 57.4272V86.4784C69.969 88.5086 68.3242 90.1688 66.313 90.1688H13.6166C11.6053 90.1688 9.97058 88.5086 9.97058 86.4784V57.4272L39.9694 75.282L69.969 57.4272Z" fill="#FFB031"/>
<mask id="mask0" mask-type="alpha" maskUnits="userSpaceOnUse" x="10" y="69" width="59" height="22">
<path fill-rule="evenodd" clip-rule="evenodd" d="M10.979 69.5198H68.9548V90.1684H10.979V69.5198Z" fill="white"/>
</mask>
<g mask="url(#mask0)">
<path fill-rule="evenodd" clip-rule="evenodd" d="M68.9548 89.0119L49.6464 69.5225L39.9699 75.2819L30.2895 69.5198L10.979 89.0112C11.6437 89.7204 12.5766 90.1688 13.6164 90.1688H66.3128C67.3526 90.1688 68.2882 89.7204 68.9548 89.0119" fill="#FF9433"/>
<path d="M36.3645 64.4726L37.4262 62.4589C37.6139 64.9308 38.1968 67.3527 39.1507 69.6246C40.8654 67.8478 41.2951 65.1658 41.6265 62.6709C42.1134 63.8955 42.5482 65.1399 42.9311 66.4044C43.7093 64.7971 43.9632 62.9694 43.6544 61.1983L44.3144 62.3682C44.7655 60.6712 44.5709 58.8583 43.7709 57.3069C42.4078 57.4122 41.0418 57.4819 39.6731 57.516C39.0177 57.5336 38.3596 57.5423 37.6986 57.5423C37.2647 57.5423 36.4656 57.3654 36.0696 57.595C35.3084 58.0337 35.5865 59.9246 35.6342 60.7011C35.6737 61.3432 35.7548 61.9818 35.8772 62.6124C35.9348 62.9093 36.4726 64.2679 36.3645 64.4726Z" fill="#ED697C"/>
</g>
<defs>
<linearGradient id="paint0_linear" x1="43.5428" y1="58.1263" x2="44.1303" y2="47.5595" gradientUnits="userSpaceOnUse">
<stop stop-color="#010101" stop-opacity="0.01"/>
<stop offset="0.95" stop-color="#010101"/>
</linearGradient>
</defs>
</svg>
