<svg width="14" height="13" viewBox="0 0 14 13" fill="none" xmlns="http://www.w3.org/2000/svg">
<path fill-rule="evenodd" clip-rule="evenodd" d="M7.02321 7.80229C6.29777 7.80229 5.70728 7.23594 5.70728 6.54016C5.70728 6.20305 5.84414 5.88614 6.09273 5.64771C6.34108 5.40928 6.67174 5.27802 7.02321 5.27802C7.74864 5.27802 8.33913 5.84438 8.33913 6.54016C8.33913 7.23594 7.74864 7.80229 7.02321 7.80229V7.80229ZM7.02273 4.13063C5.63766 4.13063 4.51099 5.21147 4.51099 6.54016C4.51099 7.86884 5.6379 8.94969 7.02321 8.94969C8.40852 8.94969 9.53543 7.86884 9.53543 6.54016C9.53543 5.21147 8.40828 4.13063 7.02273 4.13063V4.13063ZM12.3879 8.27984L11.1019 8.46687L9.89719 9.90593L9.99169 11.1417L8.92029 11.6305L7.96374 10.7855H6.03626L5.07971 11.6305L4.00831 11.1403L4.10281 9.90524L2.89814 8.46664L1.61213 8.27961L1.34918 7.18201L2.42154 6.48256L2.85221 4.68574L2.20453 3.61246L2.9436 2.72966L4.18871 3.09292L5.92668 2.29846L6.40448 1.1474H7.59552L8.07332 2.29846L9.81129 3.09407L11.0562 2.73011L11.7952 3.61292L11.1478 4.68597L11.5785 6.48279L12.6508 7.18201L12.3879 8.27984ZM12.6393 5.78701L12.4195 4.86932L13.2413 3.50667L11.4825 1.40602L9.90819 1.86544L9.01217 1.45719L8.40732 0H5.59268L4.98783 1.45719L4.09181 1.86658L2.51748 1.40671L0.75869 3.50713L1.58054 4.86932L1.36067 5.78724L0 6.67463L0.628294 9.29735L2.25741 9.53417L2.87518 10.2722L2.75531 11.8386L5.29289 13L6.50234 11.9329H7.4979L8.70711 13L11.2447 11.8372L11.1248 10.2715L11.7426 9.53372L13.3717 9.29735L14 6.67463L12.6393 5.78701Z" fill="#2D415A"/>
</svg>
