<svg width="21" height="17" viewBox="0 0 21 17" fill="none" xmlns="http://www.w3.org/2000/svg">
<path fill-rule="evenodd" clip-rule="evenodd" d="M0.155296 14.8837L0 17H2.10171C2.24795 15.1622 1.86763 12.7702 5.96737 12.8437C6.12946 12.0176 6.43643 11.2829 6.86519 10.6346C3.50662 10.2675 0.450043 11.4782 0.155296 14.8837V14.8837ZM6.82988 5.5737C6.82988 8.29049 3.97749 8.29049 3.97749 5.5737C3.97749 3.76251 6.82988 3.76251 6.82988 5.5737V5.5737ZM9.02666 5.5737C9.02666 0.592703 1.78206 0.592703 1.78206 5.5737C1.78206 11.0068 9.02666 11.0068 9.02666 5.5737V5.5737ZM13.9989 9.19516C10.1423 9.19516 7.77252 10.8455 7.49634 13.7365L7.23283 17H9.34903L9.59669 13.9019C9.75153 12.2772 11.3231 11.452 13.9989 11.452C16.6751 11.452 18.2467 12.2781 18.4006 13.8853L18.6496 17H20.7658L20.5009 13.7185C20.2257 10.8446 17.8564 9.19516 13.9989 9.19516V9.19516ZM15.4441 3.81168C15.4441 7.01273 12.1163 7.01273 12.1163 3.81168C12.1163 1.98257 15.4441 1.98257 15.4441 3.81168V3.81168ZM17.6291 3.81168C17.6291 1.98257 15.938 0 13.7802 0C11.6219 0 9.93173 1.98257 9.93173 3.81168C9.93173 9.75662 17.6291 9.75662 17.6291 3.81168V3.81168Z" fill="white"/>
</svg>
