<svg width="21" height="19" viewBox="0 0 21 19" fill="none" xmlns="http://www.w3.org/2000/svg">
<path fill-rule="evenodd" clip-rule="evenodd" d="M10.4788 0C1.03583 0 -3.57841 11.9062 3.28159 18.5803L4.63836 17.1C3.00242 15.5065 1.97548 13.2595 1.97548 10.7667C1.97548 5.94869 5.79007 2.0292 10.4805 2.0292C15.1701 2.0292 18.9859 5.94869 18.9859 10.7667C18.9859 13.0783 18.1224 15.352 16.3255 17.103L17.6822 18.5837C24.52 11.9333 19.9507 0 10.4788 0V0ZM10.9396 8.91438C9.73312 8.60953 8.64359 9.55362 8.64359 10.754C8.64359 11.807 9.48607 12.6536 10.4965 12.6536C11.5124 12.6536 12.3495 11.802 12.3495 10.754C12.3495 10.6594 12.3355 10.5691 12.3227 10.4783L15.7185 7.31247L14.3338 5.75067L10.9396 8.91438ZM7.4083 16.8855H13.5848V14.7744H7.4083V16.8855Z" fill="white"/>
</svg>
