<svg width="21" height="20" viewBox="0 0 21 20" fill="none" xmlns="http://www.w3.org/2000/svg">
<path fill-rule="evenodd" clip-rule="evenodd" d="M10.4461 4.70588C8.66373 4.70588 7.30882 5.88235 7.30882 7.84314H9.26961C9.26961 7.05882 9.66176 6.27451 10.4461 6.27451C11.2304 6.27451 11.7006 6.76157 11.6049 7.54039C11.4622 8.69882 9.26961 9.07333 9.26961 11.1227V11.7647H11.2304V11.3725C11.2304 9.96431 13.5833 9.48314 13.5833 7.45098C13.5833 5.88235 12.2465 4.70588 10.4461 4.70588V4.70588ZM9.26961 14.902H11.2304V12.9412H9.26961V14.902ZM15.9892 15.7388C14.4567 17.2714 12.419 18.1153 10.2516 18.1153H10.25C5.7751 18.1153 2.13431 14.4749 2.13431 10C2.13431 7.83216 2.97863 5.79412 4.51078 4.26118C6.04412 2.72863 8.08216 1.88431 10.25 1.88431C14.7249 1.88431 18.3657 5.5251 18.3657 10C18.3657 12.1678 17.5214 14.2059 15.9892 15.7388V15.7388ZM10.25 0C7.57863 0 5.06726 1.04039 3.17902 2.92902C1.29 4.81804 0.25 7.32902 0.25 10C0.25 15.5141 4.73549 20 10.25 20H10.2516C12.9222 20 15.4331 18.9596 17.3218 17.071C19.21 15.182 20.25 12.671 20.25 10C20.25 4.48588 15.7641 0 10.25 0V0Z" fill="#263238"/>
</svg>
