<svg width="18" height="23" viewBox="0 0 18 23" fill="none" xmlns="http://www.w3.org/2000/svg">
<path fill-rule="evenodd" clip-rule="evenodd" d="M10.4 8.00281V8.10829V9.12069H18V7.13793H12.466C15.6548 4.36207 13.4524 0 8.9736 0C4.4896 0 2.2944 4.36207 5.4808 7.13793H0L0 13.6237H3.1348C4.2608 10.8479 7.2708 12.032 7.2708 15.0117C7.2708 17.9902 4.2612 19.1754 3.1348 16.3996H0V22.6925H14.974C16.6276 22.6925 18 21.3518 18 19.7116V10.2137H16V19.7116C16 20.2585 15.5252 20.7098 14.974 20.7098H2V18.3823C4.5992 21.5548 9.2708 19.4919 9.2708 15.0117C9.2708 10.5306 4.5984 8.46855 2 11.641V9.12069H7.6V6.07636C4.8 4.96007 5.9944 1.97641 9 1.97641C12.0048 1.97641 13.2 4.96007 10.4 6.07636V8.00281Z" fill="white"/>
</svg>
