 <svg width="30" height="36" viewBox="0 0 30 36" fill="none" xmlns="http://www.w3.org/2000/svg">
<mask id="mask0" mask-type="alpha" maskUnits="userSpaceOnUse" x="0" y="0" width="30" height="26">
<path fill-rule="evenodd" clip-rule="evenodd" d="M0.00012207 0.36084H29.6948V25.5388H0.00012207V0.36084Z" fill="white"/>
</mask>
<g mask="url(#mask0)">
<path fill-rule="evenodd" clip-rule="evenodd" d="M24.6384 25.5386C24.3134 25.5386 23.9999 25.359 23.8415 25.0472C23.6173 24.6038 23.7914 24.0608 24.2308 23.8341L24.5462 23.6718C26.6516 22.3365 27.9072 20.0472 27.9072 17.5406C27.9072 14.31 25.7535 11.4443 22.6702 10.5726L21.9917 10.3808L22.0185 9.67023C22.022 9.58011 22.0253 9.49106 22.0253 9.40129C22.0253 5.41005 18.8054 2.16292 14.8473 2.16292C10.8892 2.16292 7.66897 5.41005 7.66897 9.40129C7.66897 9.47772 7.67183 9.55307 7.67469 9.62878L7.70079 10.3815L7.024 10.5726C3.94073 11.4443 1.78773 14.31 1.78773 17.5406C1.78773 20.1507 3.19029 22.5687 5.44733 23.8517C5.87743 24.0962 6.02937 24.6456 5.78697 25.0796C5.54457 25.513 4.99864 25.6662 4.56961 25.4221C1.75091 23.8196 0.00012207 20.8 0.00012207 17.5406C0.00012207 13.7375 2.38908 10.3397 5.88815 9.04979C6.07192 4.22685 10.02 0.360352 14.8473 0.360352C19.6742 0.360352 23.6223 4.22685 23.8064 9.04979C27.3055 10.3397 29.6948 13.7375 29.6948 17.5406C29.6948 20.6868 28.1117 23.5583 25.4596 25.222L25.3942 25.2595L25.0445 25.4398C24.914 25.5065 24.7753 25.5386 24.6384 25.5386" fill="white"/>
</g>
<path fill-rule="evenodd" clip-rule="evenodd" d="M14.8725 16.2345C13.8804 16.2287 13.0799 15.4133 13.0856 14.4121C13.0913 13.4117 13.9004 12.6052 14.8929 12.6106C15.8854 12.6164 16.6851 13.4322 16.6798 14.433C16.674 15.4334 15.865 16.2403 14.8725 16.2345M19.9339 16.4198C19.349 9.71463 14.9247 6.95166 14.9247 6.95166C14.9247 6.95166 10.4692 9.6638 9.80962 16.3621C9.80962 16.3621 7.00665 18.0681 8.46319 22.325C8.52004 22.5056 8.59369 22.7169 8.6727 22.8889C8.67663 22.8968 8.67985 22.9036 8.68343 22.9116C8.75171 23.077 8.825 23.2454 8.90616 23.4181C8.95336 23.5252 9.01521 23.6506 9.01521 23.6506C9.01521 23.6506 14.8271 19.8389 20.6869 23.6506C20.6869 23.6506 20.7562 23.4978 20.8553 23.2728C20.9296 23.1116 20.9983 22.9537 21.0608 22.7987C21.0894 22.7309 21.1188 22.6614 21.1481 22.5911C21.2618 22.3171 21.3436 21.9995 21.4176 21.755C22.4387 17.9797 19.9339 16.4198 19.9339 16.4198" fill="white"/>
<mask id="mask1" mask-type="alpha" maskUnits="userSpaceOnUse" x="6" y="0" width="18" height="12">
<path fill-rule="evenodd" clip-rule="evenodd" d="M6.06604 0.36084H23.7098V11.8049H6.06604V0.36084Z" fill="white"/>
</mask>
<g mask="url(#mask1)">
<path fill-rule="evenodd" clip-rule="evenodd" d="M22.6483 11.8045C22.5871 11.8045 22.5253 11.798 22.4634 11.7846C21.9804 11.6826 21.6712 11.2049 21.7727 10.7175C21.8717 10.2409 21.9221 9.74919 21.9221 9.25601C21.9221 5.3448 18.7667 2.16292 14.8879 2.16292C11.0091 2.16292 7.85365 5.3448 7.85365 9.25601C7.85365 9.70448 7.89548 10.1537 7.97807 10.591C8.07031 11.0798 7.75176 11.5518 7.26696 11.6448C6.78466 11.7381 6.3138 11.4169 6.22192 10.9273C6.1186 10.3797 6.06604 9.81696 6.06604 9.25601C6.06604 4.35087 10.0235 0.360352 14.8879 0.360352C19.752 0.360352 23.7098 4.35087 23.7098 9.25601C23.7098 9.87356 23.6465 10.49 23.5217 11.0881C23.4334 11.5125 23.0619 11.8045 22.6483 11.8045" fill="white"/>
</g>
<mask id="mask2" mask-type="alpha" maskUnits="userSpaceOnUse" x="12" y="23" width="5" height="13">
<path fill-rule="evenodd" clip-rule="evenodd" d="M13.9013 24.03C13.2627 24.7096 11.8262 31.5712 14.7708 35.8357V35.8357C17.8658 31.4436 16.297 24.2139 15.7061 23.9889V23.9889C15.6353 23.9846 15.5645 23.9802 15.4937 23.9777V23.9777L14.8577 23.9748L14.8173 23.9745L14.7318 23.9741C14.4486 23.9828 14.1709 24.0012 13.9013 24.03" fill="white"/>
</mask>
<g mask="url(#mask2)">
<path fill-rule="evenodd" clip-rule="evenodd" d="M13.9013 24.03C13.2627 24.7096 11.8262 31.5712 14.7708 35.8357V35.8357C17.8658 31.4436 16.297 24.2139 15.7061 23.9889V23.9889C15.6353 23.9846 15.5645 23.9802 15.4937 23.9777V23.9777L14.8577 23.9748L14.8173 23.9745L14.7318 23.9741C14.4486 23.9828 14.1709 24.0012 13.9013 24.03" fill="url(#paint0_linear)"/>
</g>
<mask id="mask3" mask-type="alpha" maskUnits="userSpaceOnUse" x="9" y="24" width="4" height="8">
<path fill-rule="evenodd" clip-rule="evenodd" d="M9.80753 25.227C9.43964 26.6691 9.27088 29.427 10.7979 31.324V31.324C12.6763 29.0359 12.0714 25.4509 11.6169 24.5078V24.5078C10.8708 24.7403 10.2534 25.0071 9.80753 25.227" fill="white"/>
</mask>
<g mask="url(#mask3)">
<path fill-rule="evenodd" clip-rule="evenodd" d="M9.80753 25.227C9.43964 26.6691 9.27088 29.427 10.7979 31.324V31.324C12.6763 29.0359 12.0714 25.4509 11.6169 24.5078V24.5078C10.8708 24.7403 10.2534 25.0071 9.80753 25.227" fill="url(#paint1_linear)"/>
</g>
<mask id="mask4" mask-type="alpha" maskUnits="userSpaceOnUse" x="17" y="24" width="4" height="8">
<path fill-rule="evenodd" clip-rule="evenodd" d="M18.9068 31.3079C20.4474 29.431 20.3172 26.6818 19.9694 25.2332V25.2332C19.3673 24.903 18.7688 24.6492 18.1793 24.4585V24.4585C17.712 25.3565 17.0327 28.9808 18.9068 31.3079" fill="white"/>
</mask>
<g mask="url(#mask4)">
<path fill-rule="evenodd" clip-rule="evenodd" d="M18.9068 31.3079C20.4474 29.431 20.3172 26.6818 19.9694 25.2332V25.2332C19.3673 24.903 18.7688 24.6492 18.1793 24.4585V24.4585C17.712 25.3565 17.0327 28.9808 18.9068 31.3079" fill="url(#paint2_linear)"/>
</g>
<defs>
<linearGradient id="paint0_linear" x1="18.3051" y1="46.6961" x2="18.3051" y2="23.9389" gradientUnits="userSpaceOnUse">
<stop stop-color="#F6911D"/>
<stop offset="1" stop-color="#ED697E"/>
</linearGradient>
<linearGradient id="paint1_linear" x1="15.0398" y1="46.6958" x2="15.0398" y2="23.9387" gradientUnits="userSpaceOnUse">
<stop stop-color="#F6911D"/>
<stop offset="1" stop-color="#ED697E"/>
</linearGradient>
<linearGradient id="paint2_linear" x1="23.128" y1="46.6963" x2="23.128" y2="23.9391" gradientUnits="userSpaceOnUse">
<stop stop-color="#F6911D"/>
<stop offset="1" stop-color="#ED697E"/>
</linearGradient>
</defs>
</svg>
