<svg width="171" height="36" viewBox="0 0 171 36" fill="none" xmlns="http://www.w3.org/2000/svg">
<mask id="mask0" mask-type="alpha" maskUnits="userSpaceOnUse" x="0" y="0" width="30" height="26">
<path fill-rule="evenodd" clip-rule="evenodd" d="M0.00012207 0.360687H29.6948V25.5387H0.00012207V0.360687Z" fill="white"/>
</mask>
<g mask="url(#mask0)">
<path fill-rule="evenodd" clip-rule="evenodd" d="M24.6384 25.5387C24.3134 25.5387 23.9999 25.3592 23.8415 25.0473C23.6173 24.6039 23.7914 24.0609 24.2308 23.8342L24.5462 23.672C26.6516 22.3366 27.9072 20.0474 27.9072 17.5407C27.9072 14.3102 25.7535 11.4444 22.6702 10.5727L21.9917 10.3809L22.0185 9.67036C22.022 9.58023 22.0253 9.49118 22.0253 9.40141C22.0253 5.41018 18.8054 2.16304 14.8473 2.16304C10.8892 2.16304 7.66897 5.41018 7.66897 9.40141C7.66897 9.47784 7.67183 9.55319 7.67469 9.6289L7.70079 10.3816L7.024 10.5727C3.94073 11.4444 1.78773 14.3102 1.78773 17.5407C1.78773 20.1508 3.19029 22.5688 5.44733 23.8518C5.87743 24.0963 6.02937 24.6457 5.78697 25.0798C5.54457 25.5131 4.99864 25.6663 4.56961 25.4222C1.75091 23.8198 0.00012207 20.8001 0.00012207 17.5407C0.00012207 13.7377 2.38908 10.3398 5.88815 9.04991C6.07192 4.22697 10.02 0.360474 14.8473 0.360474C19.6742 0.360474 23.6223 4.22697 23.8064 9.04991C27.3055 10.3398 29.6948 13.7377 29.6948 17.5407C29.6948 20.6869 28.1117 23.5584 25.4596 25.2222L25.3942 25.2597L25.0445 25.4399C24.914 25.5066 24.7753 25.5387 24.6384 25.5387" fill="white"/>
</g>
<path fill-rule="evenodd" clip-rule="evenodd" d="M14.8726 16.2347C13.8804 16.2289 13.0799 15.4134 13.0857 14.4123C13.0914 13.4119 13.9004 12.6054 14.8929 12.6108C15.8854 12.6166 16.6852 13.4324 16.6798 14.4332C16.6741 15.4336 15.865 16.2405 14.8726 16.2347M19.934 16.42C19.3491 9.71481 14.9247 6.95184 14.9247 6.95184C14.9247 6.95184 10.4693 9.66398 9.80968 16.3623C9.80968 16.3623 7.00671 18.0683 8.46325 22.3252C8.5201 22.5058 8.59375 22.7171 8.67276 22.889C8.67669 22.897 8.67991 22.9038 8.68349 22.9117C8.75177 23.0772 8.82507 23.2456 8.90622 23.4183C8.95342 23.5253 9.01527 23.6508 9.01527 23.6508C9.01527 23.6508 14.8271 19.8391 20.6869 23.6508C20.6869 23.6508 20.7563 23.4979 20.8553 23.273C20.9297 23.1118 20.9983 22.9539 21.0609 22.7989C21.0895 22.7311 21.1188 22.6615 21.1481 22.5912C21.2618 22.3173 21.3437 21.9996 21.4177 21.7552C22.4388 17.9799 19.934 16.42 19.934 16.42" fill="white"/>
<mask id="mask1" mask-type="alpha" maskUnits="userSpaceOnUse" x="6" y="0" width="18" height="12">
<path fill-rule="evenodd" clip-rule="evenodd" d="M6.06604 0.360687H23.7098V11.8047H6.06604V0.360687Z" fill="white"/>
</mask>
<g mask="url(#mask1)">
<path fill-rule="evenodd" clip-rule="evenodd" d="M22.6483 11.8047C22.5871 11.8047 22.5253 11.7982 22.4634 11.7849C21.9804 11.6829 21.6712 11.2052 21.7727 10.7178C21.8717 10.2412 21.9221 9.74943 21.9221 9.25625C21.9221 5.34505 18.7667 2.16316 14.8879 2.16316C11.0091 2.16316 7.85365 5.34505 7.85365 9.25625C7.85365 9.70473 7.89548 10.1539 7.97807 10.5912C8.07031 11.0801 7.75176 11.552 7.26696 11.645C6.78466 11.7384 6.3138 11.4172 6.22192 10.9276C6.1186 10.38 6.06604 9.81721 6.06604 9.25625C6.06604 4.35111 10.0235 0.360596 14.8879 0.360596C19.752 0.360596 23.7098 4.35111 23.7098 9.25625C23.7098 9.87381 23.6465 10.4903 23.5217 11.0884C23.4334 11.5127 23.0619 11.8047 22.6483 11.8047" fill="white"/>
</g>
<path fill-rule="evenodd" clip-rule="evenodd" d="M112.54 15.2021C112.598 13.8949 111.458 12.8155 109.864 12.7506C108.185 12.6829 107.08 13.7557 106.92 15.2021H112.54ZM115.255 17.4492H106.922C107.074 18.402 107.528 19.0939 108.356 19.5121C109.687 20.1855 111.031 19.9677 112.506 18.8368C113.062 19.4385 113.622 20.0438 114.194 20.6625C114.142 20.7266 114.109 20.7861 114.06 20.8265C112.293 22.2905 110.294 22.6842 108.135 21.9881C106.036 21.3114 104.711 19.8344 104.288 17.6421C103.625 14.2046 105.809 11.2451 108.779 10.7271C111.639 10.2278 114.35 11.6904 115.109 15.0136C115.18 15.3236 115.233 15.6427 115.249 15.9599C115.272 16.4372 115.255 16.9167 115.255 17.4492V17.4492Z" fill="white"/>
<path fill-rule="evenodd" clip-rule="evenodd" d="M38.0832 16.7463H40.4993C41.3399 16.7463 42.0113 16.5007 42.5129 16.0108C43.0141 15.5205 43.2651 14.8972 43.2651 14.1412C43.2651 13.3856 43.0295 12.7702 42.5583 12.2946C42.0874 11.8198 41.4568 11.5823 40.6666 11.5823H38.0832V16.7463ZM37.1561 10.6936H40.6209C41.7853 10.6936 42.6723 11.0361 43.2801 11.7203C43.8979 12.4046 44.2072 13.2168 44.2072 14.1567C44.2072 15.1066 43.8829 15.9239 43.2344 16.6082C42.5965 17.2823 41.6795 17.6194 40.4843 17.6194H38.0832V22.0173H37.1561V10.6936Z" fill="white"/>
<path fill-rule="evenodd" clip-rule="evenodd" d="M50.6349 21.297C51.9924 21.297 53.1318 20.8222 54.0539 19.8719C54.9859 18.9014 55.4521 17.7319 55.4521 16.363C55.4521 14.9841 54.9859 13.8091 54.0539 12.8386C53.1318 11.8786 51.9924 11.3984 50.6349 11.3984C49.2874 11.3984 48.1426 11.884 47.2009 12.8541C46.2685 13.8246 45.8022 14.9945 45.8022 16.363C45.8022 17.7319 46.2685 18.9014 47.2009 19.8719C48.1326 20.8222 49.277 21.297 50.6349 21.297M50.6045 22.2012C49.0039 22.2012 47.6463 21.6344 46.532 20.5003C45.4176 19.3564 44.8605 17.9824 44.8605 16.3782C44.8605 14.7645 45.4226 13.3805 46.547 12.2261C47.6717 11.0718 49.0339 10.4942 50.6349 10.4942C52.2251 10.4942 53.5826 11.0667 54.7074 12.2106C55.8415 13.3549 56.4092 14.7339 56.4092 16.3475C56.4092 17.9619 55.8415 19.3409 54.7074 20.4851C53.5826 21.6294 52.2151 22.2012 50.6045 22.2012" fill="white"/>
<path fill-rule="evenodd" clip-rule="evenodd" d="M60.7094 22.2011C59.8989 22.2011 59.1645 21.9971 58.506 21.5883C57.8474 21.1798 57.3512 20.5976 57.0169 19.8416L57.7613 19.3358C58.0451 19.9587 58.4377 20.4444 58.9389 20.7915C59.4405 21.1391 60.0201 21.3125 60.679 21.3125C61.4391 21.3125 62.0565 21.103 62.5331 20.6841C63.0093 20.2655 63.2471 19.7446 63.2471 19.1213C63.2471 18.6923 63.1259 18.3271 62.8824 18.0257C62.6389 17.7246 62.2693 17.4463 61.7734 17.1907C61.4488 17.0271 61.0637 16.8482 60.6182 16.6543C60.0508 16.399 59.6812 16.2253 59.5092 16.1333C58.2325 15.4898 57.5943 14.5911 57.5943 13.4363C57.5943 12.5888 57.8878 11.889 58.4756 11.3371C59.0634 10.7758 59.8431 10.4942 60.8156 10.4942C62.1531 10.4942 63.2117 11.0562 63.9918 12.18L63.2928 12.7467C62.6543 11.8277 61.8342 11.3677 60.831 11.3677C60.1624 11.3677 59.6175 11.5545 59.1974 11.9272C58.7773 12.3 58.5668 12.7881 58.5668 13.3906C58.5668 14.1671 59.0176 14.7951 59.9193 15.2753C60.1724 15.408 60.5828 15.6019 61.1502 15.8576C61.778 16.1333 62.2038 16.3327 62.4266 16.4553C63.6321 17.119 64.2346 17.9979 64.2346 19.0906C64.2346 20.0099 63.8953 20.7609 63.2167 21.3431C62.5378 21.9152 61.7022 22.2011 60.7094 22.2011" fill="white"/>
<path fill-rule="evenodd" clip-rule="evenodd" d="M121.386 13.0404V10.5399C120.841 10.5399 119.866 10.5403 119.358 10.5399V10.5395C119.357 9.94867 119.357 7.80938 119.357 6.09839H116.63V10.5511H113.339C113.339 10.5511 115.14 11.5068 115.579 13.0595C115.945 13.0624 116.437 13.0563 116.638 13.0563V13.5163C116.638 14.8769 116.64 16.2367 116.637 17.5973C116.635 18.323 116.735 19.0293 116.988 19.7124C117.707 21.6524 119.597 22.3745 121.378 22.0619V19.6003C121.219 19.6003 121.094 19.6046 120.97 19.5996C120.092 19.5632 119.557 19.092 119.418 18.2203C119.381 17.9849 119.361 17.744 119.36 17.5057C119.354 16.2865 119.357 14.2795 119.357 13.0404H121.386Z" fill="white"/>
<mask id="mask2" mask-type="alpha" maskUnits="userSpaceOnUse" x="119" y="0" width="5" height="5">
<path fill-rule="evenodd" clip-rule="evenodd" d="M119.864 0.675842H123.92V4.76622H119.864V0.675842Z" fill="white"/>
</mask>
<g mask="url(#mask2)">
<path fill-rule="evenodd" clip-rule="evenodd" d="M121.892 0.860785C120.875 0.860785 120.048 1.69537 120.048 2.72103C120.048 3.74705 120.875 4.58128 121.892 4.58128C122.91 4.58128 123.737 3.74705 123.737 2.72103C123.737 1.69537 122.91 0.860785 121.892 0.860785M121.892 4.76622C120.774 4.76622 119.864 3.84872 119.864 2.72103C119.864 1.59335 120.774 0.675842 121.892 0.675842C123.01 0.675842 123.92 1.59335 123.92 2.72103C123.92 3.84872 123.01 4.76622 121.892 4.76622" fill="white"/>
</g>
<path fill-rule="evenodd" clip-rule="evenodd" d="M122.007 1.89305H121.519V2.8311H121.962C122.137 2.8311 122.273 2.78784 122.37 2.70132C122.467 2.6148 122.515 2.50051 122.515 2.35739C122.515 2.21859 122.469 2.10683 122.378 2.02103C122.286 1.93559 122.162 1.89305 122.007 1.89305V1.89305ZM122.748 3.94689H122.527L121.962 3.00595H121.519V3.94689H121.337V1.7182H122.004C122.229 1.7182 122.401 1.78237 122.521 1.91108C122.643 2.03581 122.704 2.18651 122.704 2.36352C122.704 2.51457 122.656 2.64832 122.56 2.76477C122.468 2.87905 122.334 2.95368 122.156 2.98793L122.748 3.94689Z" fill="white"/>
<path fill-rule="evenodd" clip-rule="evenodd" d="M69.836 11.9592V10.9141H69.822H67.1356H67.1024V22.2011H69.836C69.836 22.2011 69.837 20.1883 69.836 19.4979V16.7065C69.8363 16.5327 69.8363 16.3586 69.8367 16.1848C69.837 15.3892 70.0669 14.6782 70.6157 14.0892C71.1849 13.4781 72.2392 13.2567 73.0698 13.22C73.3247 12.7015 73.6682 12.2177 74.1109 11.7743C74.3372 11.5479 74.5753 11.3532 74.8191 11.1751C74.867 11.1333 74.9131 11.0904 74.9643 11.05C73.1495 10.5731 71.368 10.2854 69.836 11.9592" fill="white"/>
<path fill-rule="evenodd" clip-rule="evenodd" d="M98.452 12.6426L95.7502 15.0689V6.05423H98.452V12.6426Z" fill="white"/>
<path fill-rule="evenodd" clip-rule="evenodd" d="M79.5453 19.8247C79.5353 19.8251 79.5249 19.8236 79.5149 19.8236C79.5045 19.8236 79.4945 19.8251 79.4845 19.8247C77.6458 19.8042 76.2468 18.3401 76.2725 16.4619C76.2979 14.5879 77.7183 13.1394 79.5149 13.1469C81.3114 13.1394 82.7319 14.5879 82.7572 16.4619C82.7826 18.3401 81.3844 19.8042 79.5453 19.8247M83.8545 12.3949C82.635 11.1735 81.1498 10.6713 79.5149 10.6857C77.8796 10.6713 76.3948 11.1735 75.1753 12.3949C73.9822 13.5893 73.5021 15.0757 73.5643 16.756C73.6268 18.4328 74.2529 19.8496 75.5328 20.9243C76.703 21.9067 78.054 22.318 79.5149 22.2989C80.9757 22.318 82.3268 21.9067 83.497 20.9243C84.7769 19.8496 85.4029 18.4328 85.4651 16.756C85.5273 15.0757 85.0475 13.5893 83.8545 12.3949" fill="white"/>
<path fill-rule="evenodd" clip-rule="evenodd" d="M106.431 10.2267H102.744C101.466 11.4428 99.4132 13.2359 98.109 14.4206C96.3414 16.0263 94.5402 17.5949 92.7197 19.1397C92.0104 19.7418 91.0508 19.9177 90.1834 19.7061C90.1566 19.6985 90.1298 19.6927 90.1037 19.6844C90.0372 19.6668 89.9732 19.6408 89.9082 19.6181C89.3647 19.4169 88.8957 19.0777 88.5399 18.6357C88.5256 18.6177 88.5106 18.6007 88.497 18.5824C88.4652 18.5413 88.437 18.498 88.4073 18.4555C87.9393 17.7694 87.7344 16.907 87.842 16.0404C87.8435 16.0292 87.8456 16.0184 87.847 16.0072C87.8588 15.9214 87.8728 15.8356 87.8907 15.7494C88.0279 15.107 88.3358 14.5399 88.7644 14.1008L88.7687 14.0965C88.8267 14.0377 88.8881 13.9829 88.95 13.9289C88.9868 13.8971 89.0236 13.8661 89.0623 13.8358C89.1023 13.8038 89.1431 13.7727 89.1849 13.7425C89.2439 13.7006 89.3043 13.661 89.3658 13.6231C89.3987 13.6022 89.4312 13.5813 89.4652 13.5618C89.5274 13.5262 89.5917 13.4944 89.6565 13.4634C89.6972 13.4436 89.7369 13.422 89.7784 13.4039C89.8181 13.387 89.8595 13.3737 89.9003 13.3582C90.0462 13.3023 90.1967 13.2558 90.3518 13.2222C90.3686 13.2183 90.3847 13.2129 90.4015 13.2096C90.4437 13.2013 90.4877 13.197 90.5306 13.1905C91.3275 13.0734 92.1852 13.2954 92.9217 14.0518C92.9893 14.1214 93.0683 14.1798 93.1148 14.2194C93.754 13.5727 94.3686 12.9515 94.99 12.3224C94.0214 11.2636 92.7633 10.7488 91.35 10.6979C91.2481 10.694 91.1505 10.699 91.0519 10.7023V10.6857C89.4166 10.6713 87.9321 11.1735 86.7123 12.3949C85.5192 13.5892 85.0391 15.0756 85.1016 16.756C85.151 18.0845 85.5607 19.2464 86.3626 20.2079C86.9489 20.9333 87.65 21.4506 88.447 21.7902C88.4731 21.8017 88.5002 21.8111 88.5263 21.8223C88.6053 21.8544 88.6844 21.8861 88.7652 21.9149C89.4248 22.1615 90.1209 22.2827 90.8456 22.2942C90.8717 22.2953 90.8978 22.2974 90.9242 22.2982C90.9414 22.2985 90.9578 22.2967 90.975 22.2971C91.0007 22.2971 91.0258 22.2992 91.0519 22.2989V22.296C92.4812 22.3057 93.7283 21.7592 94.8162 20.8399C95.971 19.864 97.1008 18.8574 98.2424 17.8649C98.3257 17.7921 98.4136 17.7204 98.5091 17.6407L102.188 22.3223H105.706L100.556 15.7548C102.621 13.8117 104.351 12.1836 106.431 10.2267" fill="white"/>
<mask id="mask3" mask-type="alpha" maskUnits="userSpaceOnUse" x="12" y="23" width="5" height="13">
<path fill-rule="evenodd" clip-rule="evenodd" d="M13.9012 24.0302C13.2626 24.7098 11.8261 31.5714 14.7707 35.8359V35.8359C17.8657 31.4438 16.2969 24.214 15.7059 23.9891V23.9891C15.6351 23.9848 15.5644 23.9804 15.4936 23.9779V23.9779L14.8575 23.975L14.8171 23.9747L14.7317 23.9743C14.4485 23.983 14.1707 24.0013 13.9012 24.0302" fill="white"/>
</mask>
<g mask="url(#mask3)">
<path fill-rule="evenodd" clip-rule="evenodd" d="M13.9012 24.0302C13.2626 24.7098 11.8261 31.5714 14.7707 35.8359V35.8359C17.8657 31.4438 16.2969 24.214 15.7059 23.9891V23.9891C15.6351 23.9848 15.5644 23.9804 15.4936 23.9779V23.9779L14.8575 23.975L14.8171 23.9747L14.7317 23.9743C14.4485 23.983 14.1707 24.0013 13.9012 24.0302" fill="url(#paint0_linear)"/>
</g>
<mask id="mask4" mask-type="alpha" maskUnits="userSpaceOnUse" x="9" y="24" width="4" height="8">
<path fill-rule="evenodd" clip-rule="evenodd" d="M9.80759 25.2274C9.4397 26.6695 9.27095 29.4274 10.7979 31.3244V31.3244C12.6763 29.0362 12.0714 25.4513 11.617 24.5082V24.5082C10.8709 24.7407 10.2534 25.0075 9.80759 25.2274" fill="white"/>
</mask>
<g mask="url(#mask4)">
<path fill-rule="evenodd" clip-rule="evenodd" d="M9.80759 25.2274C9.4397 26.6695 9.27095 29.4274 10.7979 31.3244V31.3244C12.6763 29.0362 12.0714 25.4513 11.617 24.5082V24.5082C10.8709 24.7407 10.2534 25.0075 9.80759 25.2274" fill="url(#paint1_linear)"/>
</g>
<mask id="mask5" mask-type="alpha" maskUnits="userSpaceOnUse" x="17" y="24" width="4" height="8">
<path fill-rule="evenodd" clip-rule="evenodd" d="M18.9068 31.3078C20.4474 29.431 20.3172 26.6817 19.9694 25.2332V25.2332C19.3673 24.9029 18.7688 24.6491 18.1793 24.4584V24.4584C17.712 25.3565 17.0327 28.9807 18.9068 31.3078" fill="white"/>
</mask>
<g mask="url(#mask5)">
<path fill-rule="evenodd" clip-rule="evenodd" d="M18.9068 31.3078C20.4474 29.431 20.3172 26.6817 19.9694 25.2332V25.2332C19.3673 24.9029 18.7688 24.6491 18.1793 24.4584V24.4584C17.712 25.3565 17.0327 28.9807 18.9068 31.3078" fill="url(#paint2_linear)"/>
</g>
<rect x="132" y="7" width="39" height="19" rx="2" fill="#EF716B"/>
<path d="M141.812 17.9941V21H140.054V12.4688H143.382C144.023 12.4688 144.585 12.5859 145.07 12.8203C145.558 13.0547 145.933 13.3887 146.195 13.8223C146.456 14.252 146.587 14.7422 146.587 15.293C146.587 16.1289 146.3 16.7891 145.726 17.2734C145.156 17.7539 144.365 17.9941 143.353 17.9941H141.812ZM141.812 16.5703H143.382C143.847 16.5703 144.201 16.4609 144.443 16.2422C144.689 16.0234 144.812 15.7109 144.812 15.3047C144.812 14.8867 144.689 14.5488 144.443 14.291C144.197 14.0332 143.857 13.9004 143.423 13.8926H141.812V16.5703ZM151.318 17.877H149.918V21H148.16V12.4688H151.33C152.338 12.4688 153.115 12.6934 153.662 13.1426C154.209 13.5918 154.482 14.2266 154.482 15.0469C154.482 15.6289 154.355 16.1152 154.102 16.5059C153.852 16.8926 153.471 17.2012 152.959 17.4316L154.805 20.918V21H152.918L151.318 17.877ZM149.918 16.4531H151.336C151.777 16.4531 152.119 16.3418 152.361 16.1191C152.604 15.8926 152.725 15.582 152.725 15.1875C152.725 14.7852 152.609 14.4688 152.379 14.2383C152.152 14.0078 151.803 13.8926 151.33 13.8926H149.918V16.4531ZM163.192 16.9277C163.192 17.7676 163.044 18.5039 162.747 19.1367C162.45 19.7695 162.024 20.2578 161.469 20.6016C160.919 20.9453 160.286 21.1172 159.571 21.1172C158.864 21.1172 158.233 20.9473 157.678 20.6074C157.124 20.2676 156.694 19.7832 156.389 19.1543C156.085 18.5215 155.93 17.7949 155.926 16.9746V16.5527C155.926 15.7129 156.077 14.9746 156.378 14.3379C156.682 13.6973 157.11 13.207 157.661 12.8672C158.215 12.5234 158.848 12.3516 159.559 12.3516C160.27 12.3516 160.901 12.5234 161.452 12.8672C162.006 13.207 162.434 13.6973 162.735 14.3379C163.04 14.9746 163.192 15.7109 163.192 16.5469V16.9277ZM161.411 16.541C161.411 15.6465 161.251 14.9668 160.93 14.502C160.61 14.0371 160.153 13.8047 159.559 13.8047C158.969 13.8047 158.514 14.0352 158.194 14.4961C157.874 14.9531 157.712 15.625 157.708 16.5117V16.9277C157.708 17.7988 157.868 18.4746 158.188 18.9551C158.508 19.4355 158.969 19.6758 159.571 19.6758C160.161 19.6758 160.614 19.4453 160.93 18.9844C161.247 18.5195 161.407 17.8438 161.411 16.957V16.541Z" fill="white"/>
<defs>
<linearGradient id="paint0_linear" x1="18.305" y1="46.6962" x2="18.305" y2="23.9391" gradientUnits="userSpaceOnUse">
<stop stop-color="#F6911D"/>
<stop offset="1" stop-color="#ED697E"/>
</linearGradient>
<linearGradient id="paint1_linear" x1="15.0398" y1="46.6962" x2="15.0398" y2="23.939" gradientUnits="userSpaceOnUse">
<stop stop-color="#F6911D"/>
<stop offset="1" stop-color="#ED697E"/>
</linearGradient>
<linearGradient id="paint2_linear" x1="23.128" y1="46.6962" x2="23.128" y2="23.939" gradientUnits="userSpaceOnUse">
<stop stop-color="#F6911D"/>
<stop offset="1" stop-color="#ED697E"/>
</linearGradient>
</defs>
</svg>
