<svg width="19" height="20" viewBox="0 0 19 20" fill="none" xmlns="http://www.w3.org/2000/svg">
<path fill-rule="evenodd" clip-rule="evenodd" d="M18.4482 13.4483C18.4482 14.6855 17.4423 15.6897 16.2034 15.6897H2.41715C1.17755 15.6897 0.172363 14.6867 0.172363 13.4483C0.172363 12.2697 1.08436 11.302 2.24133 11.2135V7.24113C2.24133 3.33619 5.40575 0.172424 9.31029 0.172424C13.2149 0.172424 16.3793 3.33694 16.3793 7.24113V11.2135C17.5347 11.3021 18.4482 12.2693 18.4482 13.4483ZM16.2061 12.931C15.3488 12.931 14.6551 12.2377 14.6551 11.3787V7.24113C14.6551 4.28914 12.2626 1.89656 9.31029 1.89656C6.35788 1.89656 3.96547 4.28849 3.96547 7.24113V11.3787C3.96547 12.2355 3.27033 12.931 2.41446 12.931C2.12898 12.931 1.8965 13.1636 1.8965 13.4483C1.8965 13.7337 2.12889 13.9655 2.41715 13.9655H16.2034C16.4908 13.9655 16.7241 13.7326 16.7241 13.4483C16.7241 13.164 16.4907 12.931 16.2061 12.931ZM7.75857 16.5517H6.03443C6.03443 18.3609 7.50109 19.8276 9.31029 19.8276C11.1195 19.8276 12.5862 18.3609 12.5862 16.5517H10.862C10.862 17.4087 10.1673 18.1035 9.31029 18.1035C8.4533 18.1035 7.75857 17.4087 7.75857 16.5517Z" fill="#263238"/>
<path d="M2.24133 11.2135L2.24895 11.3132L2.34133 11.3061V11.2135H2.24133ZM16.3793 11.2135H16.2793V11.3061L16.3716 11.3132L16.3793 11.2135ZM6.03443 16.5517V16.4517H5.93443V16.5517H6.03443ZM7.75857 16.5517H7.85857V16.4517H7.75857V16.5517ZM12.5862 16.5517H12.6862V16.4517H12.5862V16.5517ZM10.862 16.5517V16.4517H10.762V16.5517H10.862ZM16.2034 15.7897C17.4974 15.7897 18.5482 14.7409 18.5482 13.4483H18.3482C18.3482 14.6301 17.3873 15.5897 16.2034 15.5897V15.7897ZM2.41715 15.7897H16.2034V15.5897H2.41715V15.7897ZM0.0723633 13.4483C0.0723633 14.7421 1.12248 15.7897 2.41715 15.7897V15.5897C1.23261 15.5897 0.272363 14.6314 0.272363 13.4483H0.0723633ZM2.2337 11.1138C1.02505 11.2062 0.0723633 12.217 0.0723633 13.4483H0.272363C0.272363 12.3224 1.14368 11.3977 2.24895 11.3132L2.2337 11.1138ZM2.14133 7.24113V11.2135H2.34133V7.24113H2.14133ZM9.31029 0.0724243C5.35053 0.0724243 2.14133 3.28096 2.14133 7.24113H2.34133C2.34133 3.39143 5.46097 0.272424 9.31029 0.272424V0.0724243ZM16.4793 7.24113C16.4793 3.28171 13.2701 0.0724243 9.31029 0.0724243V0.272424C13.1597 0.272424 16.2793 3.39217 16.2793 7.24113H16.4793ZM16.4793 11.2135V7.24113H16.2793V11.2135H16.4793ZM18.5482 13.4483C18.5482 12.2166 17.594 11.2063 16.3869 11.1138L16.3716 11.3132C17.4755 11.3978 18.3482 12.3221 18.3482 13.4483H18.5482ZM14.5551 11.3787C14.5551 12.2929 15.2935 13.031 16.2061 13.031V12.831C15.4041 12.831 14.7551 12.1825 14.7551 11.3787H14.5551ZM14.5551 7.24113V11.3787H14.7551V7.24113H14.5551ZM9.31029 1.99656C12.2074 1.99656 14.5551 4.34437 14.5551 7.24113H14.7551C14.7551 4.23391 12.3179 1.79656 9.31029 1.79656V1.99656ZM4.06547 7.24113C4.06547 4.34373 6.4131 1.99656 9.31029 1.99656V1.79656C6.30266 1.79656 3.86547 4.23325 3.86547 7.24113H4.06547ZM4.06547 11.3787V7.24113H3.86547V11.3787H4.06547ZM2.41446 13.031C3.32563 13.031 4.06547 12.2906 4.06547 11.3787H3.86547C3.86547 12.1803 3.21503 12.831 2.41446 12.831V13.031ZM1.9965 13.4483C1.9965 13.2189 2.18413 13.031 2.41446 13.031V12.831C2.07384 12.831 1.7965 13.1083 1.7965 13.4483H1.9965ZM2.41715 13.8655C2.18362 13.8655 1.9965 13.6779 1.9965 13.4483H1.7965C1.7965 13.7894 2.07416 14.0655 2.41715 14.0655V13.8655ZM16.2034 13.8655H2.41715V14.0655H16.2034V13.8655ZM16.6241 13.4483C16.6241 13.6769 16.436 13.8655 16.2034 13.8655V14.0655C16.5455 14.0655 16.8241 13.7883 16.8241 13.4483H16.6241ZM16.2061 13.031C16.4356 13.031 16.6241 13.2194 16.6241 13.4483H16.8241C16.8241 13.1086 16.5458 12.831 16.2061 12.831V13.031ZM6.03443 16.6517H7.75857V16.4517H6.03443V16.6517ZM9.31029 19.7276C7.55631 19.7276 6.13443 18.3057 6.13443 16.5517H5.93443C5.93443 18.4162 7.44586 19.9276 9.31029 19.9276V19.7276ZM12.4862 16.5517C12.4862 18.3057 11.0643 19.7276 9.31029 19.7276V19.9276C11.1747 19.9276 12.6862 18.4162 12.6862 16.5517H12.4862ZM10.862 16.6517H12.5862V16.4517H10.862V16.6517ZM9.31029 18.2035C10.2225 18.2035 10.962 17.464 10.962 16.5517H10.762C10.762 17.3535 10.1121 18.0035 9.31029 18.0035V18.2035ZM7.65857 16.5517C7.65857 17.464 8.39807 18.2035 9.31029 18.2035V18.0035C8.50853 18.0035 7.85857 17.3535 7.85857 16.5517H7.65857Z" fill="#2C405B"/>
</svg>
