<svg width="21" height="20" viewBox="0 0 21 20" fill="none" xmlns="http://www.w3.org/2000/svg">
<path fill-rule="evenodd" clip-rule="evenodd" d="M10.5348 12.0035C9.44666 12.0035 8.56093 11.1322 8.56093 10.0618C8.56093 9.54316 8.76621 9.0556 9.13909 8.68879C9.51162 8.32198 10.0076 8.12004 10.5348 8.12004C11.623 8.12004 12.5087 8.99135 12.5087 10.0618C12.5087 11.1322 11.623 12.0035 10.5348 12.0035V12.0035ZM10.5341 6.35481C8.45649 6.35481 6.76648 8.01765 6.76648 10.0618C6.76648 12.1059 8.45685 13.7688 10.5348 13.7688C12.6128 13.7688 14.3031 12.1059 14.3031 10.0618C14.3031 8.01765 12.6124 6.35481 10.5341 6.35481V6.35481ZM18.5818 12.7382L16.6528 13.0259L14.8458 15.2399L14.9875 17.141L13.3804 17.893L11.9456 16.5931H9.0544L7.61956 17.893L6.01246 17.1389L6.15422 15.2388L4.34722 13.0256L2.41819 12.7379L2.02377 11.0492L3.63231 9.97317L4.27831 7.20883L3.3068 5.55763L4.4154 4.19947L6.28306 4.75834L8.89003 3.5361L9.60673 1.76523H11.3933L12.11 3.5361L14.7169 4.76011L16.5842 4.20018L17.6928 5.55834L16.7217 7.20918L17.3677 9.97352L18.9762 11.0492L18.5818 12.7382ZM18.959 8.90309L18.6292 7.49126L19.862 5.39488L17.2238 2.16311L14.8623 2.8699L13.5183 2.24184L12.611 0H8.38902L7.48175 2.24184L6.13771 2.87167L3.77622 2.16417L1.13804 5.39559L2.37082 7.49126L2.041 8.90344L0 10.2687L0.942441 14.3036L3.38611 14.668L4.31276 15.8034L4.13296 18.2132L7.93933 20L9.75351 18.3583H11.2468L13.0607 20L16.867 18.2111L16.6872 15.8023L17.6139 14.6673L20.0576 14.3036L21 10.2687L18.959 8.90309Z" fill="white"/>
</svg>
