<svg width="12" height="21" viewBox="0 0 12 21" fill="none" xmlns="http://www.w3.org/2000/svg">
<path fill-rule="evenodd" clip-rule="evenodd" d="M11.8736 8.41313C12.0421 8.75229 12.0421 9.15294 11.8736 9.4921L6.22436 20.5125C6.02967 20.9041 5.58368 21.0923 5.17425 20.9557C4.76482 20.8192 4.51445 20.3986 4.58473 19.9656L5.63643 13.4285L1.11924 13.2164H0.980473C0.614406 13.1529 0.298393 12.919 0.125967 12.5839C-0.0419891 12.2446 -0.0419891 11.8442 0.125967 11.5049L5.77155 0.473374C5.97319 0.0898495 6.41598 -0.0908399 6.82172 0.0448204C7.22747 0.180481 7.47908 0.593338 7.41848 1.02402L6.36678 7.54995L10.8803 7.76202H11.0191C11.3888 7.82956 11.7055 8.0709 11.8736 8.41313Z" fill="#263238"/>
</svg>
