
<svg width="210px" height="58px" viewBox="0 0 210 58" version="1.1" xmlns="http://www.w3.org/2000/svg" xmlns:xlink="http://www.w3.org/1999/xlink">
    <defs>
        <polygon id="path-1" points="0 0.587525352 50.4278286 0.587525352 50.4278286 42.8849901 0 42.8849901"></polygon>
        <path d="M3.37272727,17 C8.96763636,10.6996786 5.99963636,0.238607143 4.98845455,0.232535714 L4.98845455,0.232535714 L3.52736364,0.22525 L3.45545455,0.224642857 L1.995,0.21675 C1.99436364,0.21675 1.99436364,0.21675 1.99372727,0.21675 L1.99372727,0.21675 C0.982545455,0.21675 -2.14645455,10.6413929 3.37272727,17" id="path-3"></path>
        <linearGradient x1="50.8427822%" y1="-325.996378%" x2="49.9507658%" y2="63.9933868%" id="linearGradient-5">
            <stop stop-color="#F6911D" offset="0%"></stop>
            <stop stop-color="#ED697E" offset="100%"></stop>
        </linearGradient>
        <path d="M2.14066667,7.99015385 C5.27066667,5.064 3.60333333,0.201230769 3.03733333,0.197538462 L3.03733333,0.197538462 L2.21933333,0.193846154 L2.17933333,0.193846154 L1.36133333,0.189538462 C0.795333333,0.186461538 -0.953333333,5.032 2.14066667,7.99015385" id="path-6"></path>
        <linearGradient x1="51.0496746%" y1="-325.947876%" x2="49.9391744%" y2="63.994703%" id="linearGradient-8">
            <stop stop-color="#F6911D" offset="0%"></stop>
            <stop stop-color="#ED697E" offset="100%"></stop>
        </linearGradient>
        <path d="M2.01542857,7.99015385 C4.69828571,5.064 3.26914286,0.201230769 2.784,0.197538462 L2.784,0.197538462 L2.08342857,0.193846154 L2.048,0.193846154 L1.34742857,0.189538462 C0.862285714,0.186461538 -0.637142857,5.032 2.01542857,7.99015385" id="path-9"></path>
        <linearGradient x1="50.7718425%" y1="-325.947876%" x2="49.9559029%" y2="63.994703%" id="linearGradient-11">
            <stop stop-color="#F6911D" offset="0%"></stop>
            <stop stop-color="#ED697E" offset="100%"></stop>
        </linearGradient>
    </defs>
    <g id="Login" stroke="none" stroke-width="1" fill="none" fill-rule="evenodd">
        <g id="01--Login" transform="translate(-542.000000, -325.000000)">
            <g id="Group-42" transform="translate(542.000000, 325.000000)">
                <g id="Group-41">
                    <g id="Group-3">
                        <mask id="mask-2" fill="white">
                            <use xlink:href="#path-1"></use>
                        </mask>
                        <g id="Clip-2"></g>
                        <path d="M41.8410071,42.8849901 C41.2891143,42.8849901 40.75665,42.5833845 40.4882929,42.0595113 C40.1070071,41.3145817 40.4026857,40.4024972 41.1488643,40.0221592 L41.6843643,39.7490183 C45.2592214,37.5057507 47.3921143,33.6605817 47.3921143,29.4490042 C47.3921143,24.0219197 43.7352929,19.2077366 38.4992929,17.7433141 L37.34815,17.4217225 L37.3918643,16.2298352 C37.3985429,16.0505676 37.4040071,15.9143 37.4040071,15.7756099 C37.4040071,9.07063803 31.9354714,3.61569437 25.2137929,3.61569437 C18.4921143,3.61569437 13.0241857,9.07063803 13.0241857,15.7756099 C13.0241857,15.9264127 13.0302571,16.0760042 13.0357214,16.2255958 L13.0818643,17.4193 L11.9289,17.7433141 C6.6929,19.2077366 3.03547143,24.0219197 3.03547143,29.4490042 C3.03547143,33.833793 5.41729286,37.8957789 9.2514,40.0512296 C9.98118571,40.4618493 10.2398286,41.3848352 9.82818571,42.1140183 C9.41715,42.8419901 8.49186429,43.0999901 7.76086429,42.6893704 C2.97354286,39.9979338 -0.000242857143,34.9245394 -0.000242857143,29.4490042 C-0.000242857143,23.0601732 4.05729286,17.3520746 9.9994,15.1851169 C10.3114714,7.08294789 17.0167571,0.587525352 25.2137929,0.587525352 C33.4114357,0.587525352 40.1161143,7.08294789 40.4281857,15.1851169 C46.3702929,17.3520746 50.4278286,23.0601732 50.4278286,29.4490042 C50.4278286,34.7343704 47.7387929,39.5582437 43.2356143,42.3532437 L43.1245071,42.4156239 L42.5307214,42.7184408 C42.3097214,42.8310887 42.0735429,42.8849901 41.8410071,42.8849901" id="Fill-1" fill="#40C4FF" mask="url(#mask-2)"></path>
                    </g>
                    <g id="Group-6" transform="translate(22.000000, 41.000000)">
                        <mask id="mask-4" fill="white">
                            <use xlink:href="#path-3"></use>
                        </mask>
                        <g id="Clip-5"></g>
                        <path d="M3.37272727,17 C8.96763636,10.6996786 5.99963636,0.238607143 4.98845455,0.232535714 L4.98845455,0.232535714 L3.52736364,0.22525 L3.45545455,0.224642857 L1.995,0.21675 C1.99436364,0.21675 1.99436364,0.21675 1.99372727,0.21675 L1.99372727,0.21675 C0.982545455,0.21675 -2.14645455,10.6413929 3.37272727,17" id="Fill-4" fill="url(#linearGradient-5)" mask="url(#mask-4)"></path>
                    </g>
                    <g id="Group-11" transform="translate(10.000000, 0.000000)" fill="#40C4FF">
                        <path d="M15.5605412,27.2742424 C13.8731686,27.2645455 12.5134235,25.8936364 12.5225412,24.2106061 C12.5322667,22.5287879 13.9078157,21.1730303 15.5951882,21.1821212 C17.2825608,21.1918182 18.6423059,22.5633333 18.6331882,24.2457576 C18.6234627,25.9275758 17.2479137,27.2839394 15.5605412,27.2742424 M24.1657765,27.5857576 C23.1713451,16.3136364 15.6492863,11.6687879 15.6492863,11.6687879 C15.6492863,11.6687879 8.0743451,16.2281818 6.95287451,27.4887879 C6.95287451,27.4887879 2.18738431,30.3566667 4.66373725,37.5130303 C4.76038431,37.8166667 4.8856,38.1718182 5.01993333,38.4609091 C5.02661961,38.4742424 5.0320902,38.4863636 5.03816863,38.499697 C5.15426667,38.7772727 5.27887451,39.060303 5.4168549,39.3506061 C5.4970902,39.5306061 5.60224706,39.7415152 5.60224706,39.7415152 C5.60224706,39.7415152 15.4833451,33.3336364 25.4458941,39.7415152 C25.4458941,39.7415152 25.5644235,39.4845455 25.7327961,39.1063636 C25.8586196,38.8354545 25.9747176,38.57 26.081698,38.3093939 C26.1303255,38.1954545 26.1801686,38.0784848 26.2294039,37.960303 C26.4233059,37.499697 26.562502,36.9657576 26.6883255,36.5548485 L26.6877176,36.5548485 C28.4243255,30.2081818 24.1657765,27.5857576 24.1657765,27.5857576" id="Fill-7"></path>
                        <path d="M28.7802176,19.8269091 C28.6768843,19.8269091 28.5723353,19.816 28.4671784,19.7941818 C27.6459824,19.6226667 27.1195902,18.8196364 27.2916098,18.0002424 C27.4599824,17.1978182 27.5456882,16.3705455 27.5456882,15.5426667 C27.5456882,8.96751515 22.1808647,3.61842424 15.5863745,3.61842424 C8.99188431,3.61842424 3.62706078,8.96751515 3.62706078,15.5426667 C3.62706078,16.2978182 3.69817843,17.0529697 3.8385902,17.7869091 C3.99541373,18.6087273 3.45382549,19.4020606 2.63019804,19.5590303 C1.8053549,19.7172121 1.00968824,19.176 0.852864706,18.3535758 C0.677198039,17.4335758 0.587845098,16.4875152 0.587845098,15.5426667 C0.587845098,7.29660606 7.31606078,0.588121212 15.5863745,0.588121212 C23.8566882,0.588121212 30.5849039,7.29660606 30.5849039,15.5426667 C30.5849039,16.5790303 30.4773157,17.6153939 30.2657863,18.6220606 C30.1162569,19.336 29.4841,19.8269091 28.7802176,19.8269091" id="Fill-9"></path>
                    </g>
                    <g id="Group-14" transform="translate(16.000000, 41.000000)">
                        <mask id="mask-7" fill="white">
                            <use xlink:href="#path-6"></use>
                        </mask>
                        <g id="Clip-13"></g>
                        <path d="M2.14066667,7.99015385 C5.27066667,5.064 3.60333333,0.201230769 3.03733333,0.197538462 L3.03733333,0.197538462 L2.21933333,0.193846154 L2.17933333,0.193846154 L1.36133333,0.189538462 C0.795333333,0.186461538 -0.953333333,5.032 2.14066667,7.99015385" id="Fill-12" fill="url(#linearGradient-8)" mask="url(#mask-7)"></path>
                    </g>
                    <g id="Group-17" transform="translate(30.000000, 41.000000)">
                        <mask id="mask-10" fill="white">
                            <use xlink:href="#path-9"></use>
                        </mask>
                        <g id="Clip-16"></g>
                        <path d="M2.01542857,7.99015385 C4.69828571,5.064 3.26914286,0.201230769 2.784,0.197538462 L2.784,0.197538462 L2.08342857,0.193846154 L2.048,0.193846154 L1.34742857,0.189538462 C0.862285714,0.186461538 -0.637142857,5.032 2.01542857,7.99015385" id="Fill-15" fill="url(#linearGradient-11)" mask="url(#mask-10)"></path>
                    </g>
                    <g id="Group-40" transform="translate(61.000000, 2.000000)">
                        <path d="M129.106302,24.5043115 C129.204617,22.3049344 127.259068,20.4889016 124.534933,20.3797213 C121.667904,20.2656885 119.780367,22.0708033 119.507404,24.5043115 L129.106302,24.5043115 Z M133.744232,28.2849836 L119.511679,28.2849836 C119.770597,29.8881148 120.54674,31.0520984 121.959187,31.7557049 C124.232658,32.8887541 126.529334,32.5223934 129.0489,30.619623 C129.99908,31.6319672 130.954757,32.650377 131.932416,33.6918361 C131.843871,33.7998033 131.78708,33.8992787 131.70342,33.9678197 C128.68556,36.4304426 125.269552,37.0928033 121.583634,35.921541 C117.997863,34.7830328 115.734773,32.2979672 115.012367,28.6100984 C113.879601,22.8259672 117.608875,17.8473443 122.682814,16.9751148 C127.56806,16.1350328 132.198052,18.5958361 133.494474,24.187082 C133.614773,24.7087213 133.706982,25.2455246 133.733851,25.7792951 C133.773543,26.582377 133.744232,27.3890984 133.744232,28.2849836 L133.744232,28.2849836 Z" id="Fill-18" fill="#40C4FF"></path>
                        <path d="M1.93303074,27.102318 L6.05984221,27.102318 C7.49549385,27.102318 8.64230533,26.689859 9.49844467,25.864941 C10.3551947,25.040023 10.783875,23.9912852 10.783875,22.7193344 C10.783875,21.4479902 10.3808422,20.4125967 9.57660861,19.6125475 C8.772375,18.8137115 7.69517828,18.4139902 6.34501844,18.4139902 L1.93303074,18.4139902 L1.93303074,27.102318 Z M0.34960041,16.9188262 L6.26685451,16.9188262 C8.2563709,16.9188262 9.77079713,17.4950557 10.8095225,18.6463016 C11.8647357,19.7981541 12.3923422,21.1647279 12.3923422,22.7454164 C12.3923422,24.3436951 11.8384775,25.7193672 10.7313586,26.8700066 C9.64194877,28.0042689 8.0756168,28.5720066 6.03358402,28.5720066 L1.93303074,28.5720066 L1.93303074,35.9707934 L0.34960041,35.9707934 L0.34960041,16.9188262 Z" id="Fill-20" fill="#40C4FF"></path>
                        <path d="M23.3713217,34.7588918 C25.6899816,34.7588918 27.6361414,33.9600557 29.2110225,32.3611705 C30.803002,30.7289246 31.5992971,28.7606459 31.5992971,26.4575475 C31.5992971,24.1374656 30.803002,22.1613016 29.2110225,20.5278426 C27.6361414,18.9131869 25.6899816,18.1052525 23.3713217,18.1052525 C21.0697602,18.1052525 19.1144406,18.9216787 17.5059734,20.5539246 C15.9133832,22.186777 15.1176988,24.1550557 15.1176988,26.4575475 C15.1176988,28.7606459 15.9133832,30.7289246 17.5059734,32.3611705 C19.0973422,33.9600557 21.0526619,34.7588918 23.3713217,34.7588918 M23.319416,36.2801377 C20.5855102,36.2801377 18.2668504,35.3266295 16.3634365,33.4184 C14.4600225,31.4937934 13.5086209,29.1822033 13.5086209,26.4836295 C13.5086209,23.7680721 14.4685717,21.4394984 16.3896947,19.4973016 C18.310207,17.5551049 20.6368053,16.5840066 23.3713217,16.5840066 C26.0881291,16.5840066 28.4067889,17.5466131 30.3273012,19.4712197 C32.2649119,21.3964328 33.2340225,23.7165148 33.2340225,26.4314656 C33.2340225,29.1476295 32.2649119,31.468318 30.3273012,33.3929246 C28.4067889,35.3181377 26.0704201,36.2801377 23.319416,36.2801377" id="Fill-22" fill="#40C4FF"></path>
                        <path d="M40.5791119,36.2800164 C39.1947553,36.2800164 37.9404684,35.9367049 36.8156406,35.2488689 C35.6908127,34.5616393 34.8432225,33.5820492 34.2722594,32.3100984 L35.5436447,31.4597049 C36.0278947,32.5072295 36.6990053,33.3242623 37.5551447,33.908377 C38.4118947,34.4930984 39.4017676,34.7848525 40.5272061,34.7848525 C41.8254602,34.7848525 42.8800627,34.4324426 43.6934561,33.7282295 C44.5068496,33.0234098 44.9135463,32.1469344 44.9135463,31.0981967 C44.9135463,30.3763934 44.7059234,29.7619508 44.2906775,29.2548689 C43.8748209,28.7483934 43.2434029,28.2801311 42.3964234,27.850082 C41.841948,27.5747049 41.1842717,27.2738525 40.4233947,26.9475246 C39.454284,26.518082 38.822866,26.2257213 38.5285299,26.0710492 C36.3484889,24.9883443 35.2584684,23.4761967 35.2584684,21.5333934 C35.2584684,20.107377 35.7598168,18.9300492 36.7631242,18.0014098 C37.7670422,17.057 39.099493,16.5838852 40.7604766,16.5838852 C43.0449398,16.5838852 44.8530914,17.5295082 46.1849316,19.419541 L44.9910996,20.3736557 C43.9010791,18.8269344 42.5002348,18.0529672 40.7861242,18.0529672 C39.644198,18.0529672 38.7141693,18.3671639 37.9966488,18.9943443 C37.2785176,19.6215246 36.919452,20.4428033 36.919452,21.4563607 C36.919452,22.7628852 37.6888783,23.8195082 39.2295627,24.6274426 C39.661907,24.8506557 40.3629398,25.1775902 41.3320504,25.6070328 C42.4043619,26.0710492 43.1310422,26.4064754 43.5120914,26.6127049 C45.5706119,27.729377 46.6001775,29.2081639 46.6001775,31.0466393 C46.6001775,32.5939672 46.0206652,33.8568197 44.8616406,34.8364098 C43.7020053,35.7990164 42.2749029,36.2800164 40.5791119,36.2800164" id="Fill-24" fill="#40C4FF"></path>
                        <path d="M144.215512,20.8673328 L144.215512,16.6602508 C143.284873,16.6602508 141.619615,16.6608574 140.751262,16.6602508 C140.751262,15.6654967 140.751262,12.0661852 140.751262,9.18746393 L136.091959,9.18746393 L136.091959,16.6790541 L130.471484,16.6790541 C130.471484,16.6790541 133.547357,18.2870377 134.296631,20.8994803 C134.923775,20.9043328 135.762205,20.8940213 136.106615,20.8940213 L136.106615,21.6679885 C136.106615,23.9571361 136.110279,26.245677 136.104783,28.534218 C136.10173,29.755218 136.272102,30.9434639 136.704447,32.0928902 C137.932475,35.3567754 141.161012,36.5717098 144.201467,36.0458246 L144.201467,31.9042508 C143.930947,31.9042508 143.717828,31.9121361 143.50593,31.9030377 C142.004939,31.8417754 141.091398,31.0490049 140.855074,29.5829557 C140.791566,29.1862672 140.757369,28.7810869 140.755537,28.3801525 C140.745766,26.3287754 140.751262,22.9520705 140.751262,20.8673328 L144.215512,20.8673328 Z" id="Fill-26" fill="#40C4FF"></path>
                        <path d="M145.080506,0.375277049 C143.343191,0.375277049 141.929523,1.77945738 141.929523,3.50571967 C141.929523,5.23137541 143.343191,6.63494918 145.080506,6.63494918 C146.817822,6.63494918 148.23149,5.23137541 148.23149,3.50571967 C148.23149,1.77945738 146.817822,0.375277049 145.080506,0.375277049 M145.080506,6.94611311 C143.170986,6.94611311 141.616867,5.40242459 141.616867,3.50571967 C141.616867,1.60780164 143.170986,0.0641131148 145.080506,0.0641131148 C146.990027,0.0641131148 148.544145,1.60780164 148.544145,3.50571967 C148.544145,5.40242459 146.990027,6.94611311 145.080506,6.94611311" id="Fill-28" fill="#D0D2D3"></path>
                        <path d="M145.27616,2.11203279 L144.443226,2.11203279 L144.443226,3.69090164 L145.199828,3.69090164 C145.49905,3.69090164 145.731709,3.6175082 145.897197,3.47193443 C146.062074,3.32696721 146.144513,3.13408197 146.144513,2.89327869 C146.144513,2.6597541 146.066349,2.47172131 145.910021,2.32736066 C145.753082,2.18360656 145.541795,2.11203279 145.27616,2.11203279 L145.27616,2.11203279 Z M146.543271,5.56819672 L146.165275,5.56819672 L145.199828,3.98447541 L144.443226,3.98447541 L144.443226,5.56819672 L144.131791,5.56819672 L144.131791,1.81785246 L145.271275,1.81785246 C145.655988,1.81785246 145.950324,1.92581967 146.154894,2.14236066 C146.362517,2.35222951 146.466328,2.60577049 146.466328,2.90419672 C146.466328,3.1577377 146.3845,3.38277049 146.221455,3.57868852 C146.064517,3.77157377 145.83491,3.89652459 145.531414,3.95414754 L146.543271,5.56819672 Z" id="Fill-30" fill="#D0D2D3"></path>
                        <path d="M56.1675041,19.0482672 L56.1675041,17.2898574 L56.1430779,17.2898574 L51.5552213,17.2898574 L51.4984303,17.2898574 L51.4984303,36.2799557 L56.1675041,36.2799557 C56.1675041,36.2799557 56.1687254,32.8935459 56.1675041,31.7319885 L56.1675041,27.0354148 L56.1681148,26.1577262 C56.1693361,24.8190541 56.5619877,23.622923 57.4987336,22.6318082 C58.4715082,21.6036934 60.2717213,21.2312672 61.6902746,21.1693984 C62.1256721,20.2971689 62.7125123,19.4831689 63.4691148,18.7377098 C63.8550492,18.3561852 64.2617459,18.0286443 64.6782131,17.7290049 C64.7606516,17.6586443 64.8394262,17.5864639 64.9261393,17.5185295 C61.8264508,16.7160541 58.7841639,16.2320213 56.1675041,19.0482672" id="Fill-32" fill="#40C4FF"></path>
                        <polygon id="Fill-34" fill="#40C4FF" points="105.044389 20.1979967 100.429053 24.2801279 100.429053 9.11316066 105.044389 9.11316066"></polygon>
                        <path d="M72.7512041,32.2817721 C72.7334951,32.2823787 72.7163967,32.2799525 72.6992984,32.2799525 C72.6815893,32.2799525 72.664491,32.2823787 72.6473926,32.2817721 C69.5067902,32.2471984 67.1172943,29.7839689 67.1606508,26.6238049 C67.204618,23.4709197 69.6307533,21.0337721 72.6992984,21.0465098 C75.7678434,21.0337721 78.1939787,23.4709197 78.2373352,26.6238049 C78.2806918,29.7839689 75.8918066,32.2471984 72.7512041,32.2817721 M80.1114377,19.7812311 C78.0278803,17.7268213 75.491827,16.8812803 72.6992984,16.9055426 C69.906159,16.8812803 67.3701057,17.7268213 65.287159,19.7812311 C63.2487902,21.7907557 62.4292902,24.2915918 62.5355443,27.1193623 C62.642409,29.9398541 63.7116672,32.3236246 65.8978148,34.1323787 C67.8958803,35.784641 70.204159,36.476723 72.6992984,36.445182 C75.1944377,36.476723 77.5021057,35.784641 79.500782,34.1323787 C81.6869295,32.3236246 82.755577,29.9398541 82.8624418,27.1193623 C82.9686959,24.2915918 82.1491959,21.7907557 80.1114377,19.7812311" id="Fill-36" fill="#40C4FF"></path>
                        <path d="M118.672027,16.1333344 L112.374334,16.1333344 C110.193072,18.1792525 106.686076,21.1962689 104.457793,23.190023 C101.439322,25.891023 98.3628385,28.5301541 95.2533795,31.1292525 C94.0418385,32.1422033 92.4028385,32.4382033 90.9213877,32.0821541 C90.8755885,32.0694164 90.8297893,32.0597115 90.7852115,32.0463672 C90.6716295,32.0160393 90.5623221,31.9723672 90.4511828,31.9341541 C89.5229861,31.5956951 88.7211951,31.0249246 88.1142033,30.2818918 C88.089777,30.2509574 88.0641295,30.2224492 88.0403139,30.1915148 C87.9865762,30.1223672 87.9377238,30.0495803 87.88765,29.9780066 C87.0883016,28.8237279 86.7383959,27.3728426 86.9222033,25.9146787 C86.9246459,25.896482 86.9283098,25.8776787 86.9307525,25.859482 C86.9502934,25.7145148 86.974109,25.5701541 87.0046418,25.4251869 C87.2397443,24.3443016 87.7649082,23.3901869 88.4976951,22.6514 C88.499527,22.6495803 88.5019697,22.6471541 88.5044123,22.6447279 C88.6033385,22.5452525 88.7083713,22.4530557 88.8140148,22.3620721 C88.8769123,22.3086951 88.9404205,22.2565311 89.0057607,22.2055803 C89.0747648,22.1515967 89.1443795,22.0994328 89.2158262,22.048482 C89.3159738,21.9781213 89.4191746,21.9114 89.5242074,21.8477115 C89.5809984,21.8131377 89.636568,21.7773508 89.6939697,21.7445967 C89.8008344,21.6845475 89.9107525,21.631777 90.0212811,21.5790066 C90.0908959,21.5456459 90.158068,21.5092525 90.2289041,21.4789246 C90.2972975,21.4504164 90.3681336,21.4279738 90.4377484,21.4018918 C90.6868959,21.3078754 90.9433713,21.2296295 91.2090066,21.1732197 C91.2377074,21.1671541 91.2651869,21.1574492 91.2938877,21.1519902 C91.3659451,21.1380393 91.4410557,21.1307607 91.5143344,21.1198426 C92.8754861,20.9227115 94.3404492,21.2969574 95.5984,22.5689082 C95.7138139,22.6865803 95.8487689,22.7842361 95.9275434,22.8509574 C97.0193959,21.7627934 98.0691131,20.7176951 99.1310434,19.6592525 C97.476777,17.8777934 95.3278795,17.0116295 92.9139574,16.9261049 C92.7399205,16.9194328 92.5726008,16.9279246 92.4046705,16.9333836 L92.4046705,16.905482 C89.6115311,16.8812197 87.0754779,17.7267607 84.9925311,19.7811705 C82.954773,21.7906951 82.1346623,24.2915311 82.241527,27.1193016 C82.3257975,29.353859 83.025609,31.3087934 84.3953098,32.926482 C85.3961746,34.1468754 86.5936705,35.0172852 87.9554328,35.5886623 C88.0000107,35.6080721 88.0458098,35.6238426 88.0909984,35.6426459 C88.2259533,35.6966295 88.3609082,35.7500066 88.4989164,35.7985311 C89.6249656,36.214023 90.8139123,36.4172197 92.0523221,36.4366295 C92.0969,36.4384492 92.1414779,36.4420885 92.1866664,36.4433016 C92.2159779,36.4439082 92.2434574,36.4408754 92.2727689,36.441482 C92.3173467,36.441482 92.3600926,36.4451213 92.4046705,36.4451213 L92.4046705,36.4396623 C94.8460721,36.4566459 96.9754287,35.5364984 98.8336541,33.989777 C100.806683,32.3478262 102.736355,30.654318 104.685568,28.9844656 C104.828461,28.861941 104.978683,28.7412361 105.141728,28.6071869 L111.425375,36.483941 L117.434839,36.483941 L108.637121,25.4342852 C112.164269,22.164941 115.120453,19.4257279 118.672027,16.1333344" id="Fill-38" fill="#40C4FF"></path>
                    </g>
                </g>
            </g>
        </g>
    </g>
</svg>